<svg width="229" height="44" viewBox="0 0 229 44" fill="none" xmlns="http://www.w3.org/2000/svg">
<mask id="path-1-inside-1_4_31" fill="white">
<path d="M34.932 5.28L22.516 44H18.228L5.748 5.28C5.364 4 5.06533 3.25333 4.852 3.04C4.68133 2.784 4.25467 2.61333 3.572 2.528L0.372 2.208V0.48H15.412V2.208L12.148 2.528C11.4653 2.61333 11.0813 2.784 10.996 3.04C10.9533 3.296 11.124 4.04267 11.508 5.28L22.068 38.432L32.628 5.28C33.0547 4.04267 33.2253 3.296 33.14 3.04C33.0973 2.784 32.7133 2.61333 31.988 2.528L28.724 2.208V0.48H40.308V2.208L37.044 2.528C36.6173 2.57067 36.2973 2.656 36.084 2.784C35.9133 2.86933 35.7427 3.104 35.572 3.488C35.444 3.82933 35.2307 4.42667 34.932 5.28ZM72.2515 33.568H73.9155V44H43.2595V42.336L46.7795 41.952C47.4622 41.8667 47.8675 41.696 47.9955 41.44C48.1235 41.184 48.1875 40.3093 48.1875 38.816V5.664C48.1875 4.17067 48.1235 3.296 47.9955 3.04C47.8675 2.784 47.4622 2.61333 46.7795 2.528L43.2595 2.208V0.48H73.0835V10.912H71.4835L69.6275 4.192C69.4995 3.68 69.3502 3.31733 69.1795 3.104C69.0515 2.848 68.7742 2.69866 68.3475 2.656C67.9208 2.57067 67.1955 2.528 66.1715 2.528H53.7555V21.024H62.3315C63.3555 21.024 64.0808 21.0027 64.5075 20.96C64.9342 20.8747 65.2115 20.7253 65.3395 20.512C65.5102 20.256 65.6595 19.872 65.7875 19.36L67.0035 14.56H68.6675V29.536H67.0035L65.7875 24.736C65.6595 24.224 65.5102 23.8613 65.3395 23.648C65.2115 23.392 64.9342 23.2427 64.5075 23.2C64.0808 23.1147 63.3555 23.072 62.3315 23.072H53.7555V41.952H66.9395C67.9635 41.952 68.6888 41.9307 69.1155 41.888C69.5422 41.8027 69.8195 41.6533 69.9475 41.44C70.1182 41.184 70.2675 40.8 70.3955 40.288L72.2515 33.568ZM80.3845 2.208V0.48H98.1765C102.358 0.48 105.558 1.48267 107.777 3.488C110.038 5.45067 111.169 8.07467 111.169 11.36V13.344C111.169 15.9467 110.443 18.1653 108.993 20C107.585 21.792 105.558 23.0293 102.913 23.712L111.104 38.816C111.659 39.84 112.065 40.5653 112.321 40.992C112.577 41.376 112.811 41.632 113.025 41.76C113.281 41.8453 113.622 41.9093 114.049 41.952L116.929 42.336V44H107.265L97.1525 24.288H90.8805V38.816C90.8805 40.3093 90.9445 41.184 91.0725 41.44C91.2005 41.696 91.6058 41.8667 92.2885 41.952L95.8085 42.336V44H80.3845V42.336L83.9045 41.952C84.5872 41.8667 84.9925 41.696 85.1205 41.44C85.2485 41.184 85.3125 40.3093 85.3125 38.816V5.664C85.3125 4.17067 85.2485 3.296 85.1205 3.04C84.9925 2.784 84.5872 2.61333 83.9045 2.528L80.3845 2.208ZM98.1765 2.528H90.8805V22.24H98.1765C100.395 22.24 102.123 21.536 103.361 20.128C104.641 18.6773 105.281 16.5013 105.281 13.6V11.104C105.281 8.20267 104.641 6.048 103.361 4.64C102.123 3.232 100.395 2.528 98.1765 2.528ZM118.02 0.48H152.068V10.912H150.404L148.548 4.192C148.42 3.68 148.27 3.31733 148.1 3.104C147.972 2.848 147.694 2.69866 147.268 2.656C146.841 2.57067 146.116 2.528 145.092 2.528H137.86V38.816C137.86 40.3093 137.924 41.184 138.052 41.44C138.18 41.696 138.585 41.8667 139.268 41.952L142.788 42.336V44H127.364V42.336L130.884 41.952C131.566 41.8667 131.972 41.696 132.1 41.44C132.228 41.184 132.292 40.3093 132.292 38.816V2.528H124.996C124.014 2.528 123.289 2.57067 122.82 2.656C122.393 2.69866 122.094 2.848 121.924 3.104C121.796 3.31733 121.668 3.68 121.54 4.192L119.684 10.912H118.02V0.48ZM185.002 33.568H186.666V44H156.01V42.336L159.53 41.952C160.212 41.8667 160.618 41.696 160.746 41.44C160.874 41.184 160.938 40.3093 160.938 38.816V5.664C160.938 4.17067 160.874 3.296 160.746 3.04C160.618 2.784 160.212 2.61333 159.53 2.528L156.01 2.208V0.48H185.833V10.912H184.234L182.378 4.192C182.25 3.68 182.1 3.31733 181.93 3.104C181.802 2.848 181.524 2.69866 181.098 2.656C180.671 2.57067 179.946 2.528 178.922 2.528H166.506V21.024H175.082C176.106 21.024 176.831 21.0027 177.258 20.96C177.684 20.8747 177.962 20.7253 178.09 20.512C178.26 20.256 178.41 19.872 178.538 19.36L179.754 14.56H181.418V29.536H179.754L178.538 24.736C178.41 24.224 178.26 23.8613 178.09 23.648C177.962 23.392 177.684 23.2427 177.258 23.2C176.831 23.1147 176.106 23.072 175.082 23.072H166.506V41.952H179.69C180.714 41.952 181.439 41.9307 181.866 41.888C182.292 41.8027 182.57 41.6533 182.698 41.44C182.868 41.184 183.018 40.8 183.146 40.288L185.002 33.568ZM202.095 42.336V44H190.191V42.336L193.455 41.952C193.881 41.9093 194.201 41.8453 194.415 41.76C194.671 41.6747 194.927 41.44 195.183 41.056C195.481 40.672 195.887 40.0533 196.399 39.2L206.575 22.688L196.719 5.28C196.249 4.42667 195.887 3.82933 195.631 3.488C195.417 3.104 195.183 2.86933 194.927 2.784C194.713 2.656 194.393 2.57067 193.967 2.528L190.703 2.208V0.48H206.255V2.208L202.927 2.528C202.287 2.61333 201.945 2.784 201.903 3.04C201.903 3.296 202.244 4.04267 202.927 5.28L210.415 18.528L218.607 5.28C219.375 4.04267 219.759 3.296 219.759 3.04C219.759 2.784 219.417 2.61333 218.735 2.528L215.471 2.208V0.48H227.375V2.208L224.111 2.528C223.684 2.57067 223.343 2.656 223.087 2.784C222.873 2.86933 222.639 3.104 222.382 3.488C222.127 3.82933 221.721 4.42667 221.167 5.28L211.631 20.704L222.127 39.2C222.596 40.0533 222.937 40.672 223.151 41.056C223.407 41.3973 223.641 41.632 223.854 41.76C224.111 41.8453 224.452 41.9093 224.879 41.952L228.207 42.336V44H212.655V42.336L215.983 41.952C216.665 41.8667 217.007 41.7173 217.007 41.504C217.049 41.248 216.708 40.48 215.983 39.2L207.791 24.8L198.959 39.2C198.191 40.4373 197.807 41.184 197.807 41.44C197.807 41.696 198.148 41.8667 198.831 41.952L202.095 42.336Z"/>
</mask>
<path d="M34.932 5.28L22.516 44H18.228L5.748 5.28C5.364 4 5.06533 3.25333 4.852 3.04C4.68133 2.784 4.25467 2.61333 3.572 2.528L0.372 2.208V0.48H15.412V2.208L12.148 2.528C11.4653 2.61333 11.0813 2.784 10.996 3.04C10.9533 3.296 11.124 4.04267 11.508 5.28L22.068 38.432L32.628 5.28C33.0547 4.04267 33.2253 3.296 33.14 3.04C33.0973 2.784 32.7133 2.61333 31.988 2.528L28.724 2.208V0.48H40.308V2.208L37.044 2.528C36.6173 2.57067 36.2973 2.656 36.084 2.784C35.9133 2.86933 35.7427 3.104 35.572 3.488C35.444 3.82933 35.2307 4.42667 34.932 5.28ZM72.2515 33.568H73.9155V44H43.2595V42.336L46.7795 41.952C47.4622 41.8667 47.8675 41.696 47.9955 41.44C48.1235 41.184 48.1875 40.3093 48.1875 38.816V5.664C48.1875 4.17067 48.1235 3.296 47.9955 3.04C47.8675 2.784 47.4622 2.61333 46.7795 2.528L43.2595 2.208V0.48H73.0835V10.912H71.4835L69.6275 4.192C69.4995 3.68 69.3502 3.31733 69.1795 3.104C69.0515 2.848 68.7742 2.69866 68.3475 2.656C67.9208 2.57067 67.1955 2.528 66.1715 2.528H53.7555V21.024H62.3315C63.3555 21.024 64.0808 21.0027 64.5075 20.96C64.9342 20.8747 65.2115 20.7253 65.3395 20.512C65.5102 20.256 65.6595 19.872 65.7875 19.36L67.0035 14.56H68.6675V29.536H67.0035L65.7875 24.736C65.6595 24.224 65.5102 23.8613 65.3395 23.648C65.2115 23.392 64.9342 23.2427 64.5075 23.2C64.0808 23.1147 63.3555 23.072 62.3315 23.072H53.7555V41.952H66.9395C67.9635 41.952 68.6888 41.9307 69.1155 41.888C69.5422 41.8027 69.8195 41.6533 69.9475 41.44C70.1182 41.184 70.2675 40.8 70.3955 40.288L72.2515 33.568ZM80.3845 2.208V0.48H98.1765C102.358 0.48 105.558 1.48267 107.777 3.488C110.038 5.45067 111.169 8.07467 111.169 11.36V13.344C111.169 15.9467 110.443 18.1653 108.993 20C107.585 21.792 105.558 23.0293 102.913 23.712L111.104 38.816C111.659 39.84 112.065 40.5653 112.321 40.992C112.577 41.376 112.811 41.632 113.025 41.76C113.281 41.8453 113.622 41.9093 114.049 41.952L116.929 42.336V44H107.265L97.1525 24.288H90.8805V38.816C90.8805 40.3093 90.9445 41.184 91.0725 41.44C91.2005 41.696 91.6058 41.8667 92.2885 41.952L95.8085 42.336V44H80.3845V42.336L83.9045 41.952C84.5872 41.8667 84.9925 41.696 85.1205 41.44C85.2485 41.184 85.3125 40.3093 85.3125 38.816V5.664C85.3125 4.17067 85.2485 3.296 85.1205 3.04C84.9925 2.784 84.5872 2.61333 83.9045 2.528L80.3845 2.208ZM98.1765 2.528H90.8805V22.24H98.1765C100.395 22.24 102.123 21.536 103.361 20.128C104.641 18.6773 105.281 16.5013 105.281 13.6V11.104C105.281 8.20267 104.641 6.048 103.361 4.64C102.123 3.232 100.395 2.528 98.1765 2.528ZM118.02 0.48H152.068V10.912H150.404L148.548 4.192C148.42 3.68 148.27 3.31733 148.1 3.104C147.972 2.848 147.694 2.69866 147.268 2.656C146.841 2.57067 146.116 2.528 145.092 2.528H137.86V38.816C137.86 40.3093 137.924 41.184 138.052 41.44C138.18 41.696 138.585 41.8667 139.268 41.952L142.788 42.336V44H127.364V42.336L130.884 41.952C131.566 41.8667 131.972 41.696 132.1 41.44C132.228 41.184 132.292 40.3093 132.292 38.816V2.528H124.996C124.014 2.528 123.289 2.57067 122.82 2.656C122.393 2.69866 122.094 2.848 121.924 3.104C121.796 3.31733 121.668 3.68 121.54 4.192L119.684 10.912H118.02V0.48ZM185.002 33.568H186.666V44H156.01V42.336L159.53 41.952C160.212 41.8667 160.618 41.696 160.746 41.44C160.874 41.184 160.938 40.3093 160.938 38.816V5.664C160.938 4.17067 160.874 3.296 160.746 3.04C160.618 2.784 160.212 2.61333 159.53 2.528L156.01 2.208V0.48H185.833V10.912H184.234L182.378 4.192C182.25 3.68 182.1 3.31733 181.93 3.104C181.802 2.848 181.524 2.69866 181.098 2.656C180.671 2.57067 179.946 2.528 178.922 2.528H166.506V21.024H175.082C176.106 21.024 176.831 21.0027 177.258 20.96C177.684 20.8747 177.962 20.7253 178.09 20.512C178.26 20.256 178.41 19.872 178.538 19.36L179.754 14.56H181.418V29.536H179.754L178.538 24.736C178.41 24.224 178.26 23.8613 178.09 23.648C177.962 23.392 177.684 23.2427 177.258 23.2C176.831 23.1147 176.106 23.072 175.082 23.072H166.506V41.952H179.69C180.714 41.952 181.439 41.9307 181.866 41.888C182.292 41.8027 182.57 41.6533 182.698 41.44C182.868 41.184 183.018 40.8 183.146 40.288L185.002 33.568ZM202.095 42.336V44H190.191V42.336L193.455 41.952C193.881 41.9093 194.201 41.8453 194.415 41.76C194.671 41.6747 194.927 41.44 195.183 41.056C195.481 40.672 195.887 40.0533 196.399 39.2L206.575 22.688L196.719 5.28C196.249 4.42667 195.887 3.82933 195.631 3.488C195.417 3.104 195.183 2.86933 194.927 2.784C194.713 2.656 194.393 2.57067 193.967 2.528L190.703 2.208V0.48H206.255V2.208L202.927 2.528C202.287 2.61333 201.945 2.784 201.903 3.04C201.903 3.296 202.244 4.04267 202.927 5.28L210.415 18.528L218.607 5.28C219.375 4.04267 219.759 3.296 219.759 3.04C219.759 2.784 219.417 2.61333 218.735 2.528L215.471 2.208V0.48H227.375V2.208L224.111 2.528C223.684 2.57067 223.343 2.656 223.087 2.784C222.873 2.86933 222.639 3.104 222.382 3.488C222.127 3.82933 221.721 4.42667 221.167 5.28L211.631 20.704L222.127 39.2C222.596 40.0533 222.937 40.672 223.151 41.056C223.407 41.3973 223.641 41.632 223.854 41.76C224.111 41.8453 224.452 41.9093 224.879 41.952L228.207 42.336V44H212.655V42.336L215.983 41.952C216.665 41.8667 217.007 41.7173 217.007 41.504C217.049 41.248 216.708 40.48 215.983 39.2L207.791 24.8L198.959 39.2C198.191 40.4373 197.807 41.184 197.807 41.44C197.807 41.696 198.148 41.8667 198.831 41.952L202.095 42.336Z" fill="#030308"/>
<path d="M34.932 5.28L33.9881 4.94965L33.9838 4.9621L33.9798 4.97465L34.932 5.28ZM22.516 44V45H23.2455L23.4682 44.3053L22.516 44ZM18.228 44L17.2762 44.3068L17.4997 45H18.228V44ZM5.748 5.28L4.79017 5.56735L4.7931 5.57709L4.79622 5.58677L5.748 5.28ZM4.852 3.04L4.01995 3.5947L4.07488 3.67709L4.14489 3.7471L4.852 3.04ZM3.572 2.528L3.69603 1.53572L3.68378 1.53419L3.6715 1.53296L3.572 2.528ZM0.372002 2.208H-0.627998V3.11298L0.272495 3.20303L0.372002 2.208ZM0.372002 0.48V-0.52H-0.627998V0.48H0.372002ZM15.412 0.48H16.412V-0.52H15.412V0.48ZM15.412 2.208L15.5096 3.20322L16.412 3.11475V2.208H15.412ZM12.148 2.528L12.0504 1.53277L12.0372 1.53407L12.024 1.53572L12.148 2.528ZM10.996 3.04L10.0473 2.72377L10.0225 2.7982L10.0096 2.8756L10.996 3.04ZM11.508 5.28L10.5529 5.57641L10.5552 5.58351L11.508 5.28ZM22.068 38.432L21.1152 38.7355L22.068 41.7268L23.0208 38.7355L22.068 38.432ZM32.628 5.28L31.6826 4.95401L31.6788 4.96521L31.6752 4.97649L32.628 5.28ZM33.14 3.04L32.1536 3.2044L32.1665 3.28179L32.1913 3.35622L33.14 3.04ZM31.988 2.528L32.1048 1.53485L32.0952 1.53372L32.0856 1.53277L31.988 2.528ZM28.724 2.208H27.724V3.11475L28.6264 3.20322L28.724 2.208ZM28.724 0.48V-0.52H27.724V0.48H28.724ZM40.308 0.48H41.308V-0.52H40.308V0.48ZM40.308 2.208L40.4056 3.20322L41.308 3.11475V2.208H40.308ZM37.044 2.528L36.9464 1.53277L36.9445 1.53296L37.044 2.528ZM36.084 2.784L36.5312 3.67842L36.5656 3.66125L36.5985 3.64149L36.084 2.784ZM35.572 3.488L34.6582 3.08186L34.6461 3.10903L34.6357 3.13687L35.572 3.488ZM33.9798 4.97465L21.5638 43.6947L23.4682 44.3053L35.8842 5.58535L33.9798 4.97465ZM22.516 43H18.228V45H22.516V43ZM19.1798 43.6932L6.69978 4.97323L4.79622 5.58677L17.2762 44.3068L19.1798 43.6932ZM6.70583 4.99265C6.51007 4.34013 6.32964 3.80153 6.16448 3.38861C6.082 3.18243 5.99753 2.99286 5.91035 2.82941C5.83081 2.68027 5.71699 2.49077 5.5591 2.33289L4.14489 3.7471C4.09368 3.69589 4.09719 3.67972 4.14565 3.77059C4.18647 3.84713 4.24066 3.96423 4.30752 4.13139C4.44102 4.46514 4.60193 4.93986 4.79017 5.56735L6.70583 4.99265ZM5.68405 2.4853C5.44368 2.12474 5.08914 1.91702 4.77539 1.79152C4.45387 1.66291 4.08462 1.58429 3.69603 1.53572L3.44797 3.52028C3.74205 3.55704 3.92747 3.60642 4.03261 3.64848C4.14553 3.69364 4.08965 3.69925 4.01995 3.5947L5.68405 2.4853ZM3.6715 1.53296L0.471504 1.21296L0.272495 3.20303L3.4725 3.52304L3.6715 1.53296ZM1.372 2.208V0.48H-0.627998V2.208H1.372ZM0.372002 1.48H15.412V-0.52H0.372002V1.48ZM14.412 0.48V2.208H16.412V0.48H14.412ZM15.3144 1.21277L12.0504 1.53277L12.2456 3.52323L15.5096 3.20322L15.3144 1.21277ZM12.024 1.53572C11.6388 1.58386 11.2622 1.6638 10.9419 1.80619C10.6343 1.94286 10.2181 2.2113 10.0473 2.72377L11.9447 3.35623C11.903 3.48119 11.8345 3.56231 11.7887 3.60394C11.7474 3.64145 11.726 3.64634 11.7541 3.63381C11.7806 3.62205 11.8345 3.60221 11.9254 3.58039C12.015 3.55889 12.1294 3.53811 12.272 3.52028L12.024 1.53572ZM10.0096 2.8756C9.97412 3.08852 9.99305 3.30182 10.0121 3.45063C10.0337 3.6202 10.0705 3.81077 10.1171 4.01482C10.2107 4.42403 10.3578 4.94755 10.5529 5.5764L12.4631 4.9836C12.2742 4.37511 12.144 3.90664 12.0669 3.56917C12.0282 3.3999 12.0063 3.27847 11.9959 3.19737C11.9829 3.09551 11.9965 3.11947 11.9824 3.2044L10.0096 2.8756ZM10.5552 5.58351L21.1152 38.7355L23.0208 38.1285L12.4608 4.97649L10.5552 5.58351ZM23.0208 38.7355L33.5808 5.58351L31.6752 4.97649L21.1152 38.1285L23.0208 38.7355ZM33.5734 5.60599C33.7915 4.97355 33.9539 4.43895 34.0509 4.01482C34.0992 3.80355 34.1363 3.59789 34.1524 3.4088C34.1664 3.24488 34.1757 2.98493 34.0887 2.72378L32.1913 3.35622C32.1469 3.22306 32.167 3.15245 32.1596 3.2392C32.1544 3.30077 32.1382 3.40711 32.1011 3.56917C32.0274 3.89171 31.8912 4.34911 31.6826 4.95401L33.5734 5.60599ZM34.1264 2.87559C34.0221 2.24987 33.53 1.94123 33.2261 1.80618C32.8987 1.66065 32.5053 1.58196 32.1048 1.53485L31.8712 3.52115C32.0258 3.53934 32.1484 3.56053 32.2431 3.58239C32.3399 3.60471 32.3926 3.62435 32.4139 3.63381C32.4386 3.64479 32.3972 3.63138 32.3369 3.57111C32.2676 3.50179 32.1825 3.37799 32.1536 3.2044L34.1264 2.87559ZM32.0856 1.53277L28.8216 1.21277L28.6264 3.20322L31.8904 3.52323L32.0856 1.53277ZM29.724 2.208V0.48H27.724V2.208H29.724ZM28.724 1.48H40.308V-0.52H28.724V1.48ZM39.308 0.48V2.208H41.308V0.48H39.308ZM40.2104 1.21277L36.9464 1.53277L37.1416 3.52323L40.4056 3.20322L40.2104 1.21277ZM36.9445 1.53296C36.4625 1.58116 35.9697 1.68639 35.5695 1.9265L36.5985 3.64149C36.625 3.62561 36.7721 3.56017 37.1435 3.52304L36.9445 1.53296ZM35.6368 1.88957C35.3528 2.03158 35.154 2.25052 35.0193 2.43583C34.8788 2.62903 34.7606 2.85153 34.6582 3.08186L36.4858 3.89414C36.5541 3.74047 36.6066 3.65363 36.6367 3.61217C36.6508 3.59286 36.6526 3.59364 36.6399 3.60553C36.6274 3.61732 36.5919 3.64806 36.5312 3.67842L35.6368 1.88957ZM34.6357 3.13687C34.5034 3.48973 34.2867 4.09654 33.9881 4.94965L35.8759 5.61035C36.1746 4.7568 36.3847 4.16894 36.5083 3.83912L34.6357 3.13687ZM72.2515 33.568V32.568H71.4903L71.2876 33.3018L72.2515 33.568ZM73.9155 33.568H74.9155V32.568H73.9155V33.568ZM73.9155 44V45H74.9155V44H73.9155ZM43.2595 44H42.2595V45H43.2595V44ZM43.2595 42.336L43.1511 41.3419L42.2595 41.4392V42.336H43.2595ZM46.7795 41.952L46.8879 42.9461L46.8958 42.9453L46.9035 42.9443L46.7795 41.952ZM47.9955 41.44L48.8899 41.8872V41.8872L47.9955 41.44ZM47.9955 3.04L48.8899 2.59279L48.8899 2.59278L47.9955 3.04ZM46.7795 2.528L46.9035 1.53572L46.8868 1.53363L46.87 1.53211L46.7795 2.528ZM43.2595 2.208H42.2595V3.12121L43.169 3.20389L43.2595 2.208ZM43.2595 0.48V-0.52H42.2595V0.48H43.2595ZM73.0835 0.48H74.0835V-0.52H73.0835V0.48ZM73.0835 10.912V11.912H74.0835V10.912H73.0835ZM71.4835 10.912L70.5196 11.1782L70.7223 11.912H71.4835V10.912ZM69.6275 4.192L68.6574 4.43453L68.6603 4.44641L68.6636 4.45822L69.6275 4.192ZM69.1795 3.104L68.2851 3.55121L68.3325 3.64596L68.3986 3.72869L69.1795 3.104ZM68.3475 2.656L68.1514 3.63658L68.1993 3.64617L68.248 3.65104L68.3475 2.656ZM53.7555 2.528V1.528H52.7555V2.528H53.7555ZM53.7555 21.024H52.7555V22.024H53.7555V21.024ZM64.5075 20.96L64.607 21.955L64.6557 21.9502L64.7036 21.9406L64.5075 20.96ZM65.3395 20.512L64.5075 19.9573L64.4942 19.9771L64.482 19.9975L65.3395 20.512ZM65.7875 19.36L64.8181 19.1144L64.8174 19.1175L65.7875 19.36ZM67.0035 14.56V13.56H66.2252L66.0341 14.3144L67.0035 14.56ZM68.6675 14.56H69.6675V13.56H68.6675V14.56ZM68.6675 29.536V30.536H69.6675V29.536H68.6675ZM67.0035 29.536L66.0341 29.7816L66.2252 30.536H67.0035V29.536ZM65.7875 24.736L64.8174 24.9785L64.8181 24.9816L65.7875 24.736ZM65.3395 23.648L64.4451 24.0952L64.4925 24.19L64.5586 24.2727L65.3395 23.648ZM64.5075 23.2L64.3114 24.1806L64.3593 24.1902L64.408 24.195L64.5075 23.2ZM53.7555 23.072V22.072H52.7555V23.072H53.7555ZM53.7555 41.952H52.7555V42.952H53.7555V41.952ZM69.1155 41.888L69.215 42.883L69.2637 42.8782L69.3116 42.8686L69.1155 41.888ZM69.9475 41.44L69.1154 40.8853L69.1022 40.9051L69.09 40.9255L69.9475 41.44ZM70.3955 40.288L69.4316 40.0218L69.4283 40.0336L69.4254 40.0455L70.3955 40.288ZM72.2515 34.568H73.9155V32.568H72.2515V34.568ZM72.9155 33.568V44H74.9155V33.568H72.9155ZM73.9155 43H43.2595V45H73.9155V43ZM44.2595 44V42.336H42.2595V44H44.2595ZM43.368 43.3301L46.8879 42.9461L46.6711 40.9579L43.1511 41.3419L43.368 43.3301ZM46.9035 42.9443C47.2907 42.8959 47.663 42.8166 47.9836 42.6816C48.2932 42.5513 48.6748 42.3174 48.8899 41.8872L47.1011 40.9928C47.1882 40.8186 47.3031 40.7981 47.2074 40.8384C47.1226 40.8741 46.951 40.9228 46.6555 40.9597L46.9035 42.9443ZM48.8899 41.8872C48.991 41.6851 49.0379 41.461 49.0654 41.2994C49.0967 41.1151 49.1196 40.9006 49.1368 40.665C49.1714 40.1924 49.1875 39.5727 49.1875 38.816H47.1875C47.1875 39.5526 47.1716 40.117 47.1422 40.519C47.1274 40.7207 47.1103 40.8663 47.0936 40.9646C47.0731 41.0857 47.064 41.0669 47.1011 40.9928L48.8899 41.8872ZM49.1875 38.816V5.664H47.1875V38.816H49.1875ZM49.1875 5.664C49.1875 4.9073 49.1714 4.28764 49.1368 3.81502C49.1196 3.57937 49.0967 3.36494 49.0654 3.18058C49.0379 3.01899 48.991 2.7949 48.8899 2.59279L47.1011 3.48721C47.064 3.41309 47.0731 3.39434 47.0936 3.51541C47.1103 3.61372 47.1274 3.75929 47.1422 3.96097C47.1716 4.36303 47.1875 4.92736 47.1875 5.664H49.1875ZM48.8899 2.59278C48.6748 2.16255 48.2932 1.92874 47.9836 1.79836C47.663 1.6634 47.2907 1.58412 46.9035 1.53572L46.6555 3.52028C46.951 3.55721 47.1226 3.60593 47.2074 3.64163C47.3031 3.68192 47.1882 3.66145 47.1011 3.48721L48.8899 2.59278ZM46.87 1.53211L43.35 1.2121L43.169 3.20389L46.689 3.52389L46.87 1.53211ZM44.2595 2.208V0.48H42.2595V2.208H44.2595ZM43.2595 1.48H73.0835V-0.52H43.2595V1.48ZM72.0835 0.48V10.912H74.0835V0.48H72.0835ZM73.0835 9.912H71.4835V11.912H73.0835V9.912ZM72.4474 10.6458L70.5914 3.92577L68.6636 4.45822L70.5196 11.1782L72.4474 10.6458ZM70.5976 3.94946C70.4613 3.4041 70.2705 2.86697 69.9604 2.47931L68.3986 3.72869C68.4298 3.76769 68.5377 3.95589 68.6574 4.43453L70.5976 3.94946ZM70.0739 2.65678C69.7255 1.95992 69.0331 1.71957 68.447 1.66096L68.248 3.65104C68.3087 3.6571 68.3503 3.66565 68.3764 3.67276C68.4023 3.67984 68.4085 3.6843 68.4014 3.68047C68.3934 3.67619 68.373 3.6637 68.3484 3.6391C68.3232 3.61388 68.3012 3.58348 68.2851 3.55121L70.0739 2.65678ZM68.5436 1.67542C68.0105 1.56879 67.1971 1.528 66.1715 1.528V3.528C67.1939 3.528 67.8312 3.57254 68.1514 3.63658L68.5436 1.67542ZM66.1715 1.528H53.7555V3.528H66.1715V1.528ZM52.7555 2.528V21.024H54.7555V2.528H52.7555ZM53.7555 22.024H62.3315V20.024H53.7555V22.024ZM62.3315 22.024C63.3559 22.024 64.1257 22.0032 64.607 21.955L64.408 19.965C64.036 20.0022 63.3551 20.024 62.3315 20.024V22.024ZM64.7036 21.9406C65.2123 21.8388 65.8465 21.6107 66.197 21.0265L64.482 19.9975C64.5322 19.9139 64.5833 19.8918 64.5614 19.9035C64.536 19.9172 64.4618 19.9493 64.3114 19.9794L64.7036 21.9406ZM66.1715 21.0667C66.4355 20.6708 66.6188 20.158 66.7576 19.6025L64.8174 19.1175C64.7002 19.586 64.5848 19.8412 64.5075 19.9573L66.1715 21.0667ZM66.7569 19.6056L67.9729 14.8056L66.0341 14.3144L64.8181 19.1144L66.7569 19.6056ZM67.0035 15.56H68.6675V13.56H67.0035V15.56ZM67.6675 14.56V29.536H69.6675V14.56H67.6675ZM68.6675 28.536H67.0035V30.536H68.6675V28.536ZM67.9729 29.2904L66.7569 24.4904L64.8181 24.9816L66.0341 29.7816L67.9729 29.2904ZM66.7576 24.4935C66.6213 23.9481 66.4305 23.411 66.1204 23.0233L64.5586 24.2727C64.5898 24.3117 64.6977 24.4999 64.8174 24.9785L66.7576 24.4935ZM66.2339 23.2008C65.8855 22.5039 65.1931 22.2636 64.607 22.205L64.408 24.195C64.4687 24.2011 64.5103 24.2097 64.5364 24.2168C64.5623 24.2238 64.5685 24.2283 64.5614 24.2245C64.5535 24.2202 64.533 24.2077 64.5084 24.1831C64.4832 24.1579 64.4612 24.1275 64.4451 24.0952L66.2339 23.2008ZM64.7036 22.2194C64.1705 22.1128 63.3571 22.072 62.3315 22.072V24.072C63.3539 24.072 63.9912 24.1165 64.3114 24.1806L64.7036 22.2194ZM62.3315 22.072H53.7555V24.072H62.3315V22.072ZM52.7555 23.072V41.952H54.7555V23.072H52.7555ZM53.7555 42.952H66.9395V40.952H53.7555V42.952ZM66.9395 42.952C67.9639 42.952 68.7337 42.9312 69.215 42.883L69.016 40.893C68.644 40.9302 67.9631 40.952 66.9395 40.952V42.952ZM69.3116 42.8686C69.8203 42.7668 70.4545 42.5387 70.805 41.9545L69.09 40.9255C69.1402 40.8419 69.1913 40.8198 69.1694 40.8315C69.144 40.8452 69.0698 40.8773 68.9194 40.9074L69.3116 42.8686ZM70.7796 41.9947C71.0435 41.5988 71.2268 41.086 71.3656 40.5305L69.4254 40.0455C69.3082 40.514 69.1928 40.7692 69.1154 40.8853L70.7796 41.9947ZM71.3594 40.5542L73.2154 33.8342L71.2876 33.3018L69.4316 40.0218L71.3594 40.5542ZM80.3845 2.208H79.3845V3.12121L80.294 3.20389L80.3845 2.208ZM80.3845 0.48V-0.52H79.3845V0.48H80.3845ZM107.777 3.488L107.106 4.22987L107.113 4.23662L107.121 4.24322L107.777 3.488ZM108.993 20L108.208 19.3798L108.206 19.3822L108.993 20ZM102.913 23.712L102.663 22.7437L101.423 23.0636L102.033 24.1888L102.913 23.712ZM111.104 38.816L111.984 38.3397L111.984 38.3392L111.104 38.816ZM112.32 40.992L111.463 41.5065L111.475 41.5269L111.488 41.5467L112.32 40.992ZM113.025 41.76L112.51 42.6175L112.604 42.674L112.708 42.7087L113.025 41.76ZM114.048 41.952L114.181 40.9608L114.164 40.9586L114.148 40.957L114.048 41.952ZM116.928 42.336H117.928V41.4605L117.061 41.3448L116.928 42.336ZM116.928 44V45H117.928V44H116.928ZM107.264 44L106.375 44.4564L106.654 45H107.264V44ZM97.1525 24.288L98.0423 23.8316L97.7634 23.288H97.1525V24.288ZM90.8805 24.288V23.288H89.8805V24.288H90.8805ZM91.0725 41.44L90.1781 41.8872V41.8872L91.0725 41.44ZM92.2885 41.952L92.1645 42.9443L92.1723 42.9453L92.1801 42.9461L92.2885 41.952ZM95.8085 42.336H96.8085V41.4392L95.9169 41.3419L95.8085 42.336ZM95.8085 44V45H96.8085V44H95.8085ZM80.3845 44H79.3845V45H80.3845V44ZM80.3845 42.336L80.2761 41.3419L79.3845 41.4392V42.336H80.3845ZM83.9045 41.952L84.0129 42.9461L84.0208 42.9453L84.0285 42.9443L83.9045 41.952ZM85.1205 41.44L86.0149 41.8872V41.8872L85.1205 41.44ZM85.1205 3.04L86.0149 2.59279V2.59278L85.1205 3.04ZM83.9045 2.528L84.0285 1.53572L84.0118 1.53363L83.995 1.53211L83.9045 2.528ZM90.8805 2.528V1.528H89.8805V2.528H90.8805ZM90.8805 22.24H89.8805V23.24H90.8805V22.24ZM103.361 20.128L102.611 19.4664L102.609 19.4679L103.361 20.128ZM103.361 4.64L102.609 5.30011L102.615 5.30644L102.621 5.31267L103.361 4.64ZM81.3845 2.208V0.48H79.3845V2.208H81.3845ZM80.3845 1.48H98.1765V-0.52H80.3845V1.48ZM98.1765 1.48C102.209 1.48 105.133 2.44672 107.106 4.22987L108.447 2.74613C105.983 0.518616 102.507 -0.52 98.1765 -0.52V1.48ZM107.121 4.24322C109.141 5.99611 110.169 8.33273 110.169 11.36H112.169C112.169 7.8166 110.935 4.90522 108.432 2.73278L107.121 4.24322ZM110.169 11.36V13.344H112.169V11.36H110.169ZM110.169 13.344C110.169 15.7484 109.503 17.7417 108.208 19.3798L109.777 20.6202C111.383 18.589 112.169 16.1449 112.169 13.344H110.169ZM108.206 19.3822C106.959 20.9694 105.139 22.1046 102.663 22.7437L103.162 24.6803C105.977 23.954 108.21 22.6146 109.779 20.6178L108.206 19.3822ZM102.033 24.1888L110.225 39.2928L111.984 38.3392L103.792 23.2352L102.033 24.1888ZM110.225 39.2923C110.78 40.3167 111.195 41.0592 111.463 41.5065L113.178 40.4775C112.934 40.0715 112.538 39.3633 111.984 38.3397L110.225 39.2923ZM111.488 41.5467C111.768 41.9661 112.103 42.3731 112.51 42.6175L113.539 40.9025C113.54 40.9033 113.502 40.8791 113.426 40.7963C113.352 40.7161 113.261 40.5996 113.153 40.4373L111.488 41.5467ZM112.708 42.7087C113.063 42.827 113.486 42.9008 113.949 42.947L114.148 40.957C113.757 40.9179 113.498 40.8637 113.341 40.8113L112.708 42.7087ZM113.916 42.9432L116.796 43.3272L117.061 41.3448L114.181 40.9608L113.916 42.9432ZM115.928 42.336V44H117.928V42.336H115.928ZM116.928 43H107.264V45H116.928V43ZM108.154 43.5436L98.0423 23.8316L96.2627 24.7444L106.375 44.4564L108.154 43.5436ZM97.1525 23.288H90.8805V25.288H97.1525V23.288ZM89.8805 24.288V38.816H91.8805V24.288H89.8805ZM89.8805 38.816C89.8805 39.5727 89.8966 40.1924 89.9312 40.665C89.9484 40.9006 89.9713 41.1151 90.0026 41.2994C90.0301 41.461 90.077 41.6851 90.1781 41.8872L91.9669 40.9928C92.004 41.0669 91.9949 41.0857 91.9744 40.9646C91.9577 40.8663 91.9406 40.7207 91.9258 40.519C91.8964 40.117 91.8805 39.5526 91.8805 38.816H89.8805ZM90.1781 41.8872C90.3932 42.3174 90.7748 42.5513 91.0844 42.6816C91.405 42.8166 91.7773 42.8959 92.1645 42.9443L92.4125 40.9597C92.1171 40.9228 91.9454 40.8741 91.8605 40.8384C91.7649 40.7981 91.8798 40.8186 91.9669 40.9928L90.1781 41.8872ZM92.1801 42.9461L95.7001 43.3301L95.9169 41.3419L92.3969 40.9579L92.1801 42.9461ZM94.8085 42.336V44H96.8085V42.336H94.8085ZM95.8085 43H80.3845V45H95.8085V43ZM81.3845 44V42.336H79.3845V44H81.3845ZM80.493 43.3301L84.0129 42.9461L83.7961 40.9579L80.2761 41.3419L80.493 43.3301ZM84.0285 42.9443C84.4157 42.8959 84.788 42.8166 85.1086 42.6816C85.4182 42.5513 85.7998 42.3174 86.0149 41.8872L84.2261 40.9928C84.3132 40.8186 84.4281 40.7981 84.3324 40.8384C84.2476 40.8741 84.076 40.9228 83.7805 40.9597L84.0285 42.9443ZM86.0149 41.8872C86.116 41.6851 86.1629 41.461 86.1904 41.2994C86.2217 41.1151 86.2446 40.9006 86.2618 40.665C86.2964 40.1924 86.3125 39.5727 86.3125 38.816H84.3125C84.3125 39.5526 84.2966 40.117 84.2672 40.519C84.2524 40.7207 84.2353 40.8663 84.2186 40.9646C84.1981 41.0857 84.189 41.0669 84.2261 40.9928L86.0149 41.8872ZM86.3125 38.816V5.664H84.3125V38.816H86.3125ZM86.3125 5.664C86.3125 4.9073 86.2964 4.28764 86.2618 3.81502C86.2446 3.57937 86.2217 3.36494 86.1904 3.18058C86.1629 3.01899 86.116 2.7949 86.0149 2.59279L84.2261 3.48721C84.189 3.41309 84.1981 3.39434 84.2186 3.51541C84.2353 3.61372 84.2524 3.75929 84.2672 3.96097C84.2966 4.36303 84.3125 4.92736 84.3125 5.664H86.3125ZM86.0149 2.59278C85.7998 2.16255 85.4182 1.92874 85.1086 1.79836C84.788 1.6634 84.4157 1.58412 84.0285 1.53572L83.7805 3.52028C84.076 3.55721 84.2476 3.60593 84.3324 3.64163C84.4281 3.68192 84.3132 3.66145 84.2261 3.48721L86.0149 2.59278ZM83.995 1.53211L80.475 1.2121L80.294 3.20389L83.814 3.52389L83.995 1.53211ZM98.1765 1.528H90.8805V3.528H98.1765V1.528ZM89.8805 2.528V22.24H91.8805V2.528H89.8805ZM90.8805 23.24H98.1765V21.24H90.8805V23.24ZM98.1765 23.24C100.625 23.24 102.649 22.4522 104.112 20.7881L102.609 19.4679C101.597 20.6198 100.166 21.24 98.1765 21.24V23.24ZM104.11 20.7896C105.616 19.0837 106.281 16.6268 106.281 13.6H104.281C104.281 16.3758 103.665 18.2709 102.611 19.4664L104.11 20.7896ZM106.281 13.6V11.104H104.281V13.6H106.281ZM106.281 11.104C106.281 8.08027 105.617 5.63533 104.1 3.96733L102.621 5.31267C103.664 6.46067 104.281 8.32506 104.281 11.104H106.281ZM104.112 3.97989C102.649 2.31579 100.625 1.528 98.1765 1.528V3.528C100.166 3.528 101.597 4.14821 102.609 5.30011L104.112 3.97989ZM118.02 0.48V-0.52H117.02V0.48H118.02ZM152.068 0.48H153.068V-0.52H152.068V0.48ZM152.068 10.912V11.912H153.068V10.912H152.068ZM150.404 10.912L149.44 11.1782L149.642 11.912H150.404V10.912ZM148.548 4.192L147.577 4.43453L147.58 4.44641L147.584 4.45822L148.548 4.192ZM148.1 3.104L147.205 3.55121L147.252 3.64596L147.319 3.72869L148.1 3.104ZM147.268 2.656L147.071 3.63658L147.119 3.64617L147.168 3.65104L147.268 2.656ZM137.859 2.528V1.528H136.859V2.528H137.859ZM138.051 41.44L137.157 41.8872V41.8872L138.051 41.44ZM139.268 41.952L139.143 42.9443L139.151 42.9453L139.159 42.9461L139.268 41.952ZM142.788 42.336H143.788V41.4392L142.896 41.3419L142.788 42.336ZM142.788 44V45H143.788V44H142.788ZM127.363 44H126.363V45H127.363V44ZM127.363 42.336L127.255 41.3419L126.363 41.4392V42.336H127.363ZM130.883 41.952L130.992 42.9461L131 42.9453L131.008 42.9443L130.883 41.952ZM132.292 2.528H133.292V1.528H132.292V2.528ZM122.82 2.656L122.919 3.65104L122.959 3.64704L122.998 3.63987L122.82 2.656ZM121.923 3.104L121.091 2.5493L121.078 2.5691L121.066 2.5895L121.923 3.104ZM121.54 4.192L122.503 4.45822L122.507 4.44641L122.51 4.43453L121.54 4.192ZM119.684 10.912V11.912H120.445L120.647 11.1782L119.684 10.912ZM118.02 10.912H117.02V11.912H118.02V10.912ZM118.02 1.48H152.068V-0.52H118.02V1.48ZM151.068 0.48V10.912H153.068V0.48H151.068ZM152.068 9.912H150.404V11.912H152.068V9.912ZM151.367 10.6458L149.511 3.92577L147.584 4.45822L149.44 11.1782L151.367 10.6458ZM149.518 3.94946C149.381 3.4041 149.191 2.86697 148.88 2.47931L147.319 3.72869C147.35 3.76769 147.458 3.95589 147.577 4.43453L149.518 3.94946ZM148.994 2.65678C148.645 1.95992 147.953 1.71957 147.367 1.66096L147.168 3.65104C147.229 3.6571 147.27 3.66565 147.296 3.67276C147.322 3.67984 147.329 3.6843 147.321 3.68047C147.313 3.67619 147.293 3.6637 147.268 3.6391C147.243 3.61388 147.221 3.58348 147.205 3.55121L148.994 2.65678ZM147.464 1.67542C146.93 1.56879 146.117 1.528 145.092 1.528V3.528C146.114 3.528 146.751 3.57254 147.071 3.63658L147.464 1.67542ZM145.092 1.528H137.859V3.528H145.092V1.528ZM136.859 2.528V38.816H138.859V2.528H136.859ZM136.859 38.816C136.859 39.5727 136.876 40.1924 136.91 40.665C136.927 40.9006 136.95 41.1151 136.982 41.2994C137.009 41.461 137.056 41.6851 137.157 41.8872L138.946 40.9928C138.983 41.0669 138.974 41.0857 138.953 40.9646C138.937 40.8663 138.92 40.7207 138.905 40.519C138.875 40.117 138.859 39.5526 138.859 38.816H136.859ZM137.157 41.8872C137.372 42.3174 137.754 42.5513 138.063 42.6816C138.384 42.8166 138.756 42.8959 139.143 42.9443L139.392 40.9597C139.096 40.9228 138.924 40.8741 138.84 40.8384C138.744 40.7981 138.859 40.8186 138.946 40.9928L137.157 41.8872ZM139.159 42.9461L142.679 43.3301L142.896 41.3419L139.376 40.9579L139.159 42.9461ZM141.788 42.336V44H143.788V42.336H141.788ZM142.788 43H127.363V45H142.788V43ZM128.363 44V42.336H126.363V44H128.363ZM127.472 43.3301L130.992 42.9461L130.775 40.9579L127.255 41.3419L127.472 43.3301ZM131.008 42.9443C131.395 42.8959 131.767 42.8166 132.088 42.6816C132.397 42.5513 132.779 42.3174 132.994 41.8872L131.205 40.9928C131.292 40.8186 131.407 40.7981 131.311 40.8384C131.227 40.8741 131.055 40.9228 130.759 40.9597L131.008 42.9443ZM132.994 41.8872C133.095 41.6851 133.142 41.461 133.169 41.2994C133.201 41.1151 133.224 40.9006 133.241 40.665C133.275 40.1924 133.292 39.5727 133.292 38.816H131.292C131.292 39.5526 131.276 40.117 131.246 40.519C131.231 40.7207 131.214 40.8663 131.198 40.9646C131.177 41.0857 131.168 41.0669 131.205 40.9928L132.994 41.8872ZM133.292 38.816V2.528H131.292V38.816H133.292ZM132.292 1.528H124.995V3.528H132.292V1.528ZM124.995 1.528C124.003 1.528 123.203 1.56989 122.641 1.67213L122.998 3.63987C123.375 3.57144 124.025 3.528 124.995 3.528V1.528ZM122.72 1.66096C122.119 1.7211 121.486 1.957 121.091 2.5493L122.756 3.6587C122.748 3.67041 122.738 3.68094 122.729 3.68882C122.72 3.6964 122.717 3.69747 122.723 3.69443C122.737 3.68718 122.794 3.66354 122.919 3.65104L122.72 1.66096ZM121.066 2.5895C120.857 2.93807 120.701 3.42409 120.569 3.94946L122.51 4.43453C122.634 3.93591 122.734 3.6966 122.781 3.61849L121.066 2.5895ZM120.576 3.92577L118.72 10.6458L120.647 11.1782L122.503 4.45822L120.576 3.92577ZM119.684 9.912H118.02V11.912H119.684V9.912ZM119.02 10.912V0.48H117.02V10.912H119.02ZM185.001 33.568V32.568H184.24L184.038 33.3018L185.001 33.568ZM186.665 33.568H187.665V32.568H186.665V33.568ZM186.665 44V45H187.665V44H186.665ZM156.01 44H155.01V45H156.01V44ZM156.01 42.336L155.901 41.3419L155.01 41.4392V42.336H156.01ZM159.529 41.952L159.638 42.9461L159.646 42.9453L159.654 42.9443L159.529 41.952ZM160.745 41.44L161.64 41.8872V41.8872L160.745 41.44ZM160.745 3.04L161.64 2.59279V2.59278L160.745 3.04ZM159.529 2.528L159.654 1.53572L159.637 1.53363L159.62 1.53211L159.529 2.528ZM156.01 2.208H155.01V3.12121L155.919 3.20389L156.01 2.208ZM156.01 0.48V-0.52H155.01V0.48H156.01ZM185.833 0.48H186.833V-0.52H185.833V0.48ZM185.833 10.912V11.912H186.833V10.912H185.833ZM184.234 10.912L183.27 11.1782L183.472 11.912H184.234V10.912ZM182.378 4.192L181.407 4.43453L181.41 4.44641L181.414 4.45822L182.378 4.192ZM181.93 3.104L181.035 3.55121L181.082 3.64596L181.149 3.72869L181.93 3.104ZM181.098 2.656L180.901 3.63658L180.949 3.64617L180.998 3.65104L181.098 2.656ZM166.505 2.528V1.528H165.505V2.528H166.505ZM166.505 21.024H165.505V22.024H166.505V21.024ZM177.258 20.96L177.357 21.955L177.406 21.9502L177.454 21.9406L177.258 20.96ZM178.09 20.512L177.257 19.9573L177.244 19.9771L177.232 19.9975L178.09 20.512ZM178.538 19.36L177.568 19.1144L177.567 19.1175L178.538 19.36ZM179.754 14.56V13.56H178.975L178.784 14.3144L179.754 14.56ZM181.417 14.56H182.417V13.56H181.417V14.56ZM181.417 29.536V30.536H182.417V29.536H181.417ZM179.754 29.536L178.784 29.7816L178.975 30.536H179.754V29.536ZM178.538 24.736L177.567 24.9785L177.568 24.9816L178.538 24.736ZM178.09 23.648L177.195 24.0952L177.242 24.19L177.309 24.2727L178.09 23.648ZM177.258 23.2L177.061 24.1806L177.109 24.1902L177.158 24.195L177.258 23.2ZM166.505 23.072V22.072H165.505V23.072H166.505ZM166.505 41.952H165.505V42.952H166.505V41.952ZM181.866 41.888L181.965 42.883L182.014 42.8782L182.062 42.8686L181.866 41.888ZM182.698 41.44L181.865 40.8853L181.852 40.9051L181.84 40.9255L182.698 41.44ZM183.146 40.288L182.182 40.0218L182.178 40.0336L182.175 40.0455L183.146 40.288ZM185.001 34.568H186.665V32.568H185.001V34.568ZM185.665 33.568V44H187.665V33.568H185.665ZM186.665 43H156.01V45H186.665V43ZM157.01 44V42.336H155.01V44H157.01ZM156.118 43.3301L159.638 42.9461L159.421 40.9579L155.901 41.3419L156.118 43.3301ZM159.654 42.9443C160.041 42.8959 160.413 42.8166 160.734 42.6816C161.043 42.5513 161.425 42.3174 161.64 41.8872L159.851 40.9928C159.938 40.8186 160.053 40.7981 159.957 40.8384C159.873 40.8741 159.701 40.9228 159.405 40.9597L159.654 42.9443ZM161.64 41.8872C161.741 41.6851 161.788 41.461 161.815 41.2994C161.847 41.1151 161.87 40.9006 161.887 40.665C161.921 40.1924 161.938 39.5727 161.938 38.816H159.938C159.938 39.5526 159.922 40.117 159.892 40.519C159.877 40.7207 159.86 40.8663 159.844 40.9646C159.823 41.0857 159.814 41.0669 159.851 40.9928L161.64 41.8872ZM161.938 38.816V5.664H159.938V38.816H161.938ZM161.938 5.664C161.938 4.9073 161.921 4.28764 161.887 3.81502C161.87 3.57937 161.847 3.36494 161.815 3.18058C161.788 3.01899 161.741 2.7949 161.64 2.59279L159.851 3.48721C159.814 3.41309 159.823 3.39434 159.844 3.51541C159.86 3.61372 159.877 3.75929 159.892 3.96097C159.922 4.36303 159.938 4.92736 159.938 5.664H161.938ZM161.64 2.59278C161.425 2.16255 161.043 1.92874 160.734 1.79836C160.413 1.6634 160.041 1.58412 159.654 1.53572L159.405 3.52028C159.701 3.55721 159.873 3.60593 159.957 3.64163C160.053 3.68192 159.938 3.66145 159.851 3.48721L161.64 2.59278ZM159.62 1.53211L156.1 1.2121L155.919 3.20389L159.439 3.52389L159.62 1.53211ZM157.01 2.208V0.48H155.01V2.208H157.01ZM156.01 1.48H185.833V-0.52H156.01V1.48ZM184.833 0.48V10.912H186.833V0.48H184.833ZM185.833 9.912H184.234V11.912H185.833V9.912ZM185.197 10.6458L183.341 3.92577L181.414 4.45822L183.27 11.1782L185.197 10.6458ZM183.348 3.94946C183.211 3.4041 183.021 2.86697 182.71 2.47931L181.149 3.72869C181.18 3.76769 181.288 3.95589 181.407 4.43453L183.348 3.94946ZM182.824 2.65678C182.475 1.95992 181.783 1.71957 181.197 1.66096L180.998 3.65104C181.059 3.6571 181.1 3.66565 181.126 3.67276C181.152 3.67984 181.159 3.6843 181.151 3.68047C181.143 3.67619 181.123 3.6637 181.098 3.6391C181.073 3.61388 181.051 3.58348 181.035 3.55121L182.824 2.65678ZM181.294 1.67542C180.76 1.56879 179.947 1.528 178.922 1.528V3.528C179.944 3.528 180.581 3.57254 180.901 3.63658L181.294 1.67542ZM178.922 1.528H166.505V3.528H178.922V1.528ZM165.505 2.528V21.024H167.505V2.528H165.505ZM166.505 22.024H175.081V20.024H166.505V22.024ZM175.081 22.024C176.106 22.024 176.876 22.0032 177.357 21.955L177.158 19.965C176.786 20.0022 176.105 20.024 175.081 20.024V22.024ZM177.454 21.9406C177.962 21.8388 178.596 21.6107 178.947 21.0265L177.232 19.9975C177.282 19.9139 177.333 19.8918 177.311 19.9035C177.286 19.9172 177.212 19.9493 177.061 19.9794L177.454 21.9406ZM178.922 21.0667C179.186 20.6708 179.369 20.158 179.508 19.6025L177.567 19.1175C177.45 19.586 177.335 19.8412 177.257 19.9573L178.922 21.0667ZM179.507 19.6056L180.723 14.8056L178.784 14.3144L177.568 19.1144L179.507 19.6056ZM179.754 15.56H181.417V13.56H179.754V15.56ZM180.417 14.56V29.536H182.417V14.56H180.417ZM181.417 28.536H179.754V30.536H181.417V28.536ZM180.723 29.2904L179.507 24.4904L177.568 24.9816L178.784 29.7816L180.723 29.2904ZM179.508 24.4935C179.371 23.9481 179.18 23.411 178.87 23.0233L177.309 24.2727C177.34 24.3117 177.448 24.4999 177.567 24.9785L179.508 24.4935ZM178.984 23.2008C178.635 22.5039 177.943 22.2636 177.357 22.205L177.158 24.195C177.219 24.2011 177.26 24.2097 177.286 24.2168C177.312 24.2238 177.319 24.2283 177.311 24.2245C177.303 24.2202 177.283 24.2077 177.258 24.1831C177.233 24.1579 177.211 24.1275 177.195 24.0952L178.984 23.2008ZM177.454 22.2194C176.921 22.1128 176.107 22.072 175.081 22.072V24.072C176.104 24.072 176.741 24.1165 177.061 24.1806L177.454 22.2194ZM175.081 22.072H166.505V24.072H175.081V22.072ZM165.505 23.072V41.952H167.505V23.072H165.505ZM166.505 42.952H179.689V40.952H166.505V42.952ZM179.689 42.952C180.714 42.952 181.484 42.9312 181.965 42.883L181.766 40.893C181.394 40.9302 180.713 40.952 179.689 40.952V42.952ZM182.062 42.8686C182.57 42.7668 183.204 42.5387 183.555 41.9545L181.84 40.9255C181.89 40.8419 181.941 40.8198 181.919 40.8315C181.894 40.8452 181.82 40.8773 181.669 40.9074L182.062 42.8686ZM183.53 41.9947C183.794 41.5988 183.977 41.086 184.116 40.5305L182.175 40.0455C182.058 40.514 181.943 40.7692 181.865 40.8853L183.53 41.9947ZM184.109 40.5542L185.965 33.8342L184.038 33.3018L182.182 40.0218L184.109 40.5542ZM202.094 42.336H203.094V41.4468L202.211 41.3428L202.094 42.336ZM202.094 44V45H203.094V44H202.094ZM190.191 44H189.191V45H190.191V44ZM190.191 42.336L190.074 41.3428L189.191 41.4468V42.336H190.191ZM193.454 41.952L193.355 40.957L193.346 40.9578L193.338 40.9589L193.454 41.952ZM194.415 41.76L194.098 40.8113L194.07 40.8206L194.043 40.8315L194.415 41.76ZM195.182 41.056L194.393 40.4421L194.371 40.4709L194.35 40.5013L195.182 41.056ZM196.398 39.2L195.547 38.6753L195.541 38.6855L196.398 39.2ZM206.574 22.688L207.426 23.2127L207.736 22.7096L207.445 22.1953L206.574 22.688ZM196.719 5.28L195.842 5.76196L195.848 5.77269L196.719 5.28ZM195.63 3.488L194.756 3.97364L194.79 4.03335L194.831 4.088L195.63 3.488ZM194.926 2.784L194.412 3.64149L194.506 3.69797L194.61 3.73268L194.926 2.784ZM193.967 2.528L194.066 1.53296L194.064 1.53277L193.967 2.528ZM190.702 2.208H189.702V3.11475L190.605 3.20322L190.702 2.208ZM190.702 0.48V-0.52H189.702V0.48H190.702ZM206.255 0.48H207.255V-0.52H206.255V0.48ZM206.255 2.208L206.35 3.20341L207.255 3.11645V2.208H206.255ZM202.926 2.528L202.831 1.53259L202.813 1.53435L202.794 1.53677L202.926 2.528ZM201.902 3.04L200.916 2.8756L200.902 2.95723V3.04H201.902ZM202.926 5.28L202.051 5.7631L202.056 5.77206L202.926 5.28ZM210.415 18.528L209.544 19.0201L210.376 20.4919L211.265 19.0539L210.415 18.528ZM218.607 5.28L217.757 4.75263L217.756 4.75407L218.607 5.28ZM218.734 2.528L218.859 1.53572L218.845 1.53407L218.832 1.53277L218.734 2.528ZM215.47 2.208H214.47V3.11475L215.373 3.20322L215.47 2.208ZM215.47 0.48V-0.52H214.47V0.48H215.47ZM227.375 0.48H228.375V-0.52H227.375V0.48ZM227.375 2.208L227.472 3.20322L228.375 3.11475V2.208H227.375ZM224.111 2.528L224.013 1.53277L224.011 1.53296L224.111 2.528ZM223.086 2.784L223.458 3.71247L223.497 3.69703L223.534 3.67842L223.086 2.784ZM222.383 3.488L223.182 4.088L223.199 4.06579L223.215 4.0427L222.383 3.488ZM221.167 5.28L220.328 4.73501L220.322 4.7445L220.316 4.75413L221.167 5.28ZM211.63 20.704L210.78 20.1781L210.468 20.6822L210.761 21.1975L211.63 20.704ZM222.126 39.2L223.003 38.718L222.996 38.7065L222.126 39.2ZM223.151 41.056L222.276 41.5416L222.31 41.6014L222.35 41.656L223.151 41.056ZM223.854 41.76L223.34 42.6175L223.434 42.674L223.538 42.7087L223.854 41.76ZM224.879 41.952L224.993 40.9586L224.986 40.9577L224.978 40.957L224.879 41.952ZM228.207 42.336H229.207V41.4447L228.321 41.3426L228.207 42.336ZM228.207 44V45H229.207V44H228.207ZM212.654 44H211.654V45H212.654V44ZM212.654 42.336L212.54 41.3426L211.654 41.4447V42.336H212.654ZM215.983 41.952L216.097 42.9455L216.107 42.9443L215.983 41.952ZM217.007 41.504L216.02 41.3396L216.007 41.4212V41.504H217.007ZM215.983 39.2L216.853 38.707L216.852 38.7055L215.983 39.2ZM207.79 24.8L208.66 24.3055L207.823 22.8345L206.938 24.2772L207.79 24.8ZM198.958 39.2L199.808 39.7274L199.811 39.7228L198.958 39.2ZM198.831 41.952L198.706 42.9443L198.714 42.9452L198.831 41.952ZM201.094 42.336V44H203.094V42.336H201.094ZM202.094 43H190.191V45H202.094V43ZM191.191 44V42.336H189.191V44H191.191ZM190.307 43.3292L193.571 42.9452L193.338 40.9589L190.074 41.3428L190.307 43.3292ZM193.554 42.947C194.008 42.9016 194.44 42.8268 194.786 42.6885L194.043 40.8315C193.962 40.8639 193.754 40.917 193.355 40.957L193.554 42.947ZM194.731 42.7087C195.302 42.5183 195.714 42.061 196.015 41.6107L194.35 40.5013C194.253 40.6469 194.176 40.7342 194.123 40.7828C194.07 40.8314 194.06 40.8239 194.098 40.8113L194.731 42.7087ZM195.972 41.6699C196.309 41.2361 196.74 40.5745 197.256 39.7145L195.541 38.6855C195.033 39.5322 194.653 40.1079 194.393 40.4421L195.972 41.6699ZM197.25 39.7247L207.426 23.2127L205.723 22.1633L195.547 38.6754L197.25 39.7247ZM207.445 22.1953L197.589 4.78731L195.848 5.77269L205.704 23.1807L207.445 22.1953ZM197.595 4.79808C197.124 3.94217 196.732 3.29053 196.43 2.888L194.831 4.088C195.041 4.36813 195.374 4.91117 195.842 5.76192L197.595 4.79808ZM196.505 3.00236C196.242 2.52918 195.847 2.03664 195.243 1.83532L194.61 3.73268C194.561 3.71626 194.555 3.69877 194.587 3.7311C194.622 3.76546 194.681 3.83831 194.756 3.97364L196.505 3.00236ZM195.441 1.9265C195.041 1.68639 194.548 1.58116 194.066 1.53296L193.867 3.52304C194.238 3.56017 194.386 3.62561 194.412 3.64149L195.441 1.9265ZM194.064 1.53277L190.8 1.21277L190.605 3.20322L193.869 3.52323L194.064 1.53277ZM191.702 2.208V0.48H189.702V2.208H191.702ZM190.702 1.48H206.255V-0.52H190.702V1.48ZM205.255 0.48V2.208H207.255V0.48H205.255ZM206.159 1.21259L202.831 1.53259L203.022 3.52341L206.35 3.20341L206.159 1.21259ZM202.794 1.53677C202.43 1.58541 202.058 1.66816 201.743 1.82557C201.428 1.98326 201.012 2.3031 200.916 2.8756L202.889 3.2044C202.865 3.34789 202.799 3.46022 202.734 3.53296C202.675 3.59776 202.63 3.61853 202.638 3.61443C202.644 3.61109 202.679 3.59541 202.755 3.57562C202.829 3.55628 202.929 3.53654 203.059 3.51923L202.794 1.53677ZM200.902 3.04C200.902 3.27787 200.971 3.50361 201.02 3.64626C201.077 3.81562 201.156 4.00519 201.249 4.20776C201.435 4.61447 201.705 5.13563 202.051 5.76308L203.802 4.79692C203.466 4.18704 203.223 3.71619 203.068 3.37624C202.99 3.20548 202.941 3.08305 202.913 3.00174C202.876 2.89372 202.902 2.93012 202.902 3.04H200.902ZM202.056 5.77206L209.544 19.0201L211.285 18.0359L203.797 4.78794L202.056 5.77206ZM211.265 19.0539L219.457 5.80593L217.756 4.75407L209.564 18.0021L211.265 19.0539ZM219.456 5.80736C219.846 5.17981 220.15 4.65765 220.36 4.24935C220.464 4.04614 220.554 3.85435 220.62 3.68164C220.675 3.53956 220.759 3.29921 220.759 3.04H218.759C218.759 2.90879 218.794 2.85777 218.753 2.96635C218.723 3.04432 218.669 3.16453 218.581 3.33465C218.407 3.67301 218.135 4.14286 217.757 4.75264L219.456 5.80736ZM220.759 3.04C220.759 2.36236 220.273 1.98725 219.95 1.82557C219.627 1.66413 219.237 1.58305 218.859 1.53572L218.61 3.52028C218.752 3.53803 218.861 3.55831 218.94 3.57814C218.979 3.58792 219.008 3.59679 219.028 3.60386C219.049 3.61101 219.057 3.6151 219.055 3.61443C219.054 3.61388 219.039 3.60608 219.014 3.588C218.99 3.56982 218.953 3.53795 218.914 3.4887C218.825 3.3775 218.759 3.21892 218.759 3.04H220.759ZM218.832 1.53277L215.568 1.21277L215.373 3.20322L218.637 3.52323L218.832 1.53277ZM216.47 2.208V0.48H214.47V2.208H216.47ZM215.47 1.48H227.375V-0.52H215.47V1.48ZM226.375 0.48V2.208H228.375V0.48H226.375ZM227.277 1.21277L224.013 1.53277L224.208 3.52323L227.472 3.20322L227.277 1.21277ZM224.011 1.53296C223.518 1.58229 223.044 1.68714 222.639 1.88957L223.534 3.67842C223.641 3.62485 223.85 3.55904 224.21 3.52304L224.011 1.53296ZM222.715 1.85552C222.202 2.06071 221.825 2.52139 221.55 2.9333L223.215 4.0427C223.319 3.88598 223.401 3.7878 223.458 3.73111C223.518 3.67038 223.52 3.68771 223.458 3.71247L222.715 1.85552ZM221.582 2.888C221.304 3.2589 220.883 3.88143 220.328 4.73501L222.005 5.82499C222.559 4.9719 222.949 4.39977 223.182 4.088L221.582 2.888ZM220.316 4.75413L210.78 20.1781L212.481 21.2299L222.017 5.80587L220.316 4.75413ZM210.761 21.1975L221.257 39.6935L222.996 38.7065L212.5 20.2105L210.761 21.1975ZM221.25 39.6819C221.72 40.5354 222.062 41.1556 222.276 41.5416L224.025 40.5704C223.812 40.1884 223.472 39.5713 223.003 38.7181L221.25 39.6819ZM222.35 41.656C222.637 42.0375 222.964 42.3917 223.34 42.6175L224.369 40.9025C224.319 40.8723 224.176 40.7572 223.951 40.456L222.35 41.656ZM223.538 42.7087C223.893 42.827 224.316 42.9008 224.779 42.947L224.978 40.957C224.587 40.9179 224.328 40.8637 224.171 40.8113L223.538 42.7087ZM224.764 42.9454L228.092 43.3294L228.321 41.3426L224.993 40.9586L224.764 42.9454ZM227.207 42.336V44H229.207V42.336H227.207ZM228.207 43H212.654V45H228.207V43ZM213.655 44V42.336H211.654V44H213.655ZM212.769 43.3294L216.097 42.9454L215.868 40.9586L212.54 41.3426L212.769 43.3294ZM216.107 42.9443C216.477 42.898 216.847 42.8252 217.151 42.6922C217.396 42.5851 218.007 42.2492 218.007 41.504H216.007C216.007 41.3931 216.03 41.2837 216.073 41.1841C216.115 41.087 216.169 41.0153 216.214 40.9666C216.298 40.8775 216.367 40.8522 216.35 40.8598C216.339 40.8643 216.297 40.8807 216.207 40.9013C216.12 40.9212 216.005 40.9414 215.858 40.9597L216.107 42.9443ZM217.993 41.6684C218.043 41.3684 217.971 41.0873 217.927 40.936C217.872 40.7478 217.791 40.5424 217.696 40.3299C217.506 39.9022 217.221 39.3577 216.853 38.707L215.112 39.693C215.469 40.3223 215.717 40.8018 215.869 41.1421C215.945 41.3136 215.987 41.4282 216.007 41.496C216.037 41.6007 215.991 41.5116 216.02 41.3396L217.993 41.6684ZM216.852 38.7055L208.66 24.3055L206.921 25.2945L215.113 39.6945L216.852 38.7055ZM206.938 24.2772L198.106 38.6772L199.811 39.7228L208.643 25.3228L206.938 24.2772ZM198.109 38.6726C197.719 39.3002 197.415 39.8223 197.205 40.2307C197.101 40.4339 197.011 40.6256 196.945 40.7984C196.89 40.9404 196.807 41.1808 196.807 41.44H198.807C198.807 41.5712 198.771 41.6222 198.812 41.5136C198.842 41.4357 198.896 41.3155 198.984 41.1453C199.158 40.807 199.43 40.3371 199.808 39.7274L198.109 38.6726ZM196.807 41.44C196.807 42.1176 197.292 42.4927 197.615 42.6544C197.938 42.8159 198.328 42.8969 198.706 42.9443L198.955 40.9597C198.813 40.942 198.704 40.9217 198.625 40.9019C198.586 40.8921 198.557 40.8832 198.537 40.8761C198.516 40.869 198.508 40.8649 198.51 40.8656C198.511 40.8661 198.526 40.8739 198.551 40.892C198.575 40.9102 198.612 40.9421 198.651 40.9913C198.74 41.1025 198.807 41.2611 198.807 41.44H196.807ZM198.714 42.9452L201.978 43.3292L202.211 41.3428L198.947 40.9589L198.714 42.9452Z" fill="black" mask="url(#path-1-inside-1_4_31)"/>
</svg>
